<?xml version="1.0" standalone="no"?>
<!DOCTYPE svg PUBLIC "-//W3C//DTD SVG 20010904//EN"
 "http://www.w3.org/TR/2001/REC-SVG-20010904/DTD/svg10.dtd">
<svg version="1.0" xmlns="http://www.w3.org/2000/svg"
 width="640.000000pt" height="640.000000pt" viewBox="0 0 640.000000 640.000000"
 preserveAspectRatio="xMidYMid meet">
<metadata>
Created by potrace 1.14, written by Peter Selinger 2001-2017
</metadata>
<g transform="translate(0.000000,640.000000) scale(0.100000,-0.100000)"
fill="#000000" stroke="none">
<path d="M649 5035 c-3 -2 -23 -7 -45 -11 -135 -21 -284 -105 -396 -221 -96
-101 -155 -211 -189 -353 -17 -71 -18 -147 -16 -1275 1 -660 6 -1211 9 -1224
76 -261 208 -426 421 -527 159 -75 2 -69 1922 -69 946 0 1738 4 1760 8 235 46
441 206 539 419 31 67 44 103 62 183 4 17 9 154 11 305 3 151 6 276 8 278 2 2
27 -10 57 -26 29 -16 94 -51 143 -77 50 -26 133 -70 185 -98 52 -27 133 -70
180 -95 47 -24 117 -62 155 -82 39 -21 115 -61 170 -90 113 -59 241 -127 330
-175 126 -68 208 -75 301 -27 52 27 98 77 123 132 20 45 21 57 18 1205 l-2
1160 -22 41 c-71 132 -222 183 -356 119 -29 -13 -104 -52 -167 -85 -63 -34
-155 -83 -205 -110 -49 -26 -144 -76 -210 -110 -66 -35 -151 -80 -190 -100
-38 -21 -149 -79 -245 -130 -96 -51 -195 -103 -219 -117 -24 -13 -45 -22 -47
-20 -2 1 -4 113 -4 248 -1 200 -5 262 -20 331 -33 152 -108 286 -216 388 -75
70 -102 88 -194 133 -160 78 9 72 -1921 74 -949 2 -1728 1 -1730 -2z m3461
-188 c208 -54 382 -228 425 -426 3 -12 7 -31 10 -43 3 -13 6 -547 6 -1188 0
-1155 0 -1166 -21 -1240 -29 -104 -71 -173 -155 -256 -81 -80 -176 -133 -280
-155 -47 -9 -429 -12 -1720 -12 -913 0 -1680 2 -1706 6 -149 19 -310 122 -399
257 -35 52 -75 156 -86 220 -10 61 -12 2281 -1 2350 38 266 239 465 502 498
33 4 802 7 1710 6 1513 -1 1655 -2 1715 -17z m2061 -472 c16 -9 34 -27 39 -40
6 -14 9 -483 9 -1140 l0 -1115 -22 -25 c-36 -41 -68 -39 -160 9 -189 99 -365
192 -627 331 -85 45 -204 109 -265 141 -60 32 -150 80 -200 106 -49 26 -118
62 -152 80 l-63 33 0 451 0 451 158 83 c170 90 273 144 367 195 33 18 116 62
185 98 69 36 249 131 400 211 151 80 281 146 288 146 7 0 26 -7 43 -15z"/>
</g>
</svg>
